<svg width="94" height="40" viewBox="0 0 94 40" fill="none" xmlns="http://www.w3.org/2000/svg">
<path d="M82.6836 2.27051C76.0127 -1.16161 68.0762 -0.584471 61.9707 3.77489L47 14.4697L32.0293 3.77492C25.9238 -0.584473 17.9815 -1.16161 11.3164 2.27054C4.64552 5.7041 0.5 12.4966 0.5 19.9995C0.5 27.5025 4.64552 34.2949 11.3164 37.7285C17.9902 41.1592 25.9238 40.585 32.0293 36.2242L47 25.5293L61.9707 36.2241C65.4306 38.6953 69.4765 39.9507 73.5488 39.9507C76.6631 39.9507 79.7949 39.2153 82.6836 37.7285C89.3545 34.2949 93.5 27.5025 93.5 19.9995C93.5 12.4966 89.3545 5.7041 82.6836 2.27051ZM26.7969 28.8999C23.3985 31.3286 19.1562 31.6406 15.4326 29.7261C11.7178 27.813 9.5 24.1773 9.5 19.9995C9.5 15.8218 11.7178 12.186 15.4326 10.2729C17.0498 9.44237 18.7666 9.03077 20.4688 9.03077C22.6836 9.03077 24.875 9.72656 26.7969 11.0991L39.2569 19.9995L26.7969 28.8999ZM78.5674 29.7261C74.8467 31.6406 70.6045 31.3286 67.2031 28.8999L54.7432 19.9995L67.2031 11.0991C70.6045 8.67041 74.8467 8.36426 78.5674 10.2729C82.2822 12.186 84.5 15.8218 84.5 19.9995C84.5 24.1773 82.2822 27.813 78.5674 29.7261Z" fill="#D4A33A"/>
</svg>
