<svg xmlns="http://www.w3.org/2000/svg" viewBox="0 0 48 48" width="48" height="48" preserveAspectRatio="xMidYMid meet" style="width: 100%; height: 100%; transform: translate3d(0px, 0px, 0px);"><defs><clipPath id="__lottie_element_59"><rect width="48" height="48" x="0" y="0"></rect></clipPath><mask id="__lottie_element_64"><rect fill="#ffffff" width="48" height="48" x="0" y="0"></rect><path fill="#000000" clip-rule="nonzero" d=" M28.000999450683594,46.5 C28.000999450683594,46.5 2.000999927520752,46.5 2.000999927520752,46.5 C2.000999927520752,46.5 2.000999927520752,2.5 2.000999927520752,2.5 C2.000999927520752,2.5 28.000999450683594,2.5 28.000999450683594,2.5 C28.000999450683594,2.5 28.000999450683594,46.5 28.000999450683594,46.5" fill-opacity="1"></path></mask><mask id="__lottie_element_67"><rect fill="#ffffff" width="48" height="48" x="0" y="0"></rect><path fill="#000000" clip-rule="nonzero" d=" M28.000999450683594,46.5 C28.000999450683594,46.5 2.000999927520752,46.5 2.000999927520752,46.5 C2.000999927520752,46.5 2.000999927520752,2.5 2.000999927520752,2.5 C2.000999927520752,2.5 28.000999450683594,2.5 28.000999450683594,2.5 C28.000999450683594,2.5 28.000999450683594,46.5 28.000999450683594,46.5" fill-opacity="1"></path></mask><mask id="__lottie_element_70"><rect fill="#ffffff" width="48" height="48" x="0" y="0"></rect><path fill="#000000" clip-rule="nonzero" d=" M28.000999450683594,46.5 C28.000999450683594,46.5 2.000999927520752,46.5 2.000999927520752,46.5 C2.000999927520752,46.5 2.000999927520752,2.5 2.000999927520752,2.5 C2.000999927520752,2.5 28.000999450683594,2.5 28.000999450683594,2.5 C28.000999450683594,2.5 28.000999450683594,46.5 28.000999450683594,46.5" fill-opacity="1"></path></mask></defs><g clip-path="url(#__lottie_element_59)"><g mask="url(#__lottie_element_70)" transform="matrix(1,0,0,1,0,0)" opacity="1" style="display: block;"><g opacity="1" transform="matrix(1,0,0,1,26,24)"><path stroke-linecap="butt" stroke-linejoin="miter" fill-opacity="0" stroke-miterlimit="10" stroke="rgb(129,211,249)" stroke-opacity="1" stroke-width="2" d=" M-16,0 C-16,-8.836000442504883 -8.836000442504883,-16 0,-16 C0.6779999732971191,-16 1.3450000286102295,-15.958000183105469 2,-15.87600040435791 C9.892999649047852,-14.892000198364258 16,-8.159000396728516 16,0 C16,8.159000396728516 9.892999649047852,14.892000198364258 2,15.87600040435791 C1.3450000286102295,15.958000183105469 0.6779999732971191,16 0,16 C-8.836000442504883,16 -16,8.836999893188477 -16,0z"></path></g></g><g mask="url(#__lottie_element_67)" style="display: none;" transform="matrix(1,0,0,1,0,0)" opacity="1"><g opacity="1" transform="matrix(1,0,0,1,26,24)"><path stroke-linecap="butt" stroke-linejoin="miter" fill-opacity="0" stroke-miterlimit="10" stroke="rgb(129,211,249)" stroke-opacity="1" stroke-width="2" d=" M-16,0 C-16,-8.836000442504883 -8.836000442504883,-16 0,-16 C0.6779999732971191,-16 1.3450000286102295,-15.958000183105469 2,-15.87600040435791 C9.892999649047852,-14.892000198364258 16,-8.159000396728516 16,0 C16,8.159000396728516 9.892999649047852,14.892000198364258 2,15.87600040435791 C1.3450000286102295,15.958000183105469 0.6779999732971191,16 0,16 C-8.836000442504883,16 -16,8.836999893188477 -16,0z"></path></g></g><g mask="url(#__lottie_element_64)" transform="matrix(1,0,0,1,0,0)" opacity="1" style="display: block;"><g opacity="1" transform="matrix(1,0,0,1,26,24)"><path stroke-linecap="butt" stroke-linejoin="miter" fill-opacity="0" stroke-miterlimit="10" stroke="rgb(79,195,247)" stroke-opacity="1" stroke-width="2" d=" M-11,0 C-11,-6.074999809265137 -6.074999809265137,-11 0,-11 C0.6830000281333923,-11 1.3519999980926514,-10.937999725341797 2,-10.819000244140625 C7.119999885559082,-9.878000259399414 11,-5.392000198364258 11,0 C11,5.39300012588501 7.119999885559082,9.878000259399414 2,10.817999839782715 C1.3519999980926514,10.937999725341797 0.6830000281333923,11 0,11 C-6.074999809265137,11 -11,6.074999809265137 -11,0z"></path></g><g opacity="1" transform="matrix(1,0,0,1,26,24)"><path stroke-linecap="butt" stroke-linejoin="miter" fill-opacity="0" stroke-miterlimit="10" stroke="rgb(3,169,244)" stroke-opacity="1" stroke-width="2" d=" M-6,0 C-6,-3.312999963760376 -3.312999963760376,-6 0,-6 C0.7009999752044678,-6 1.375,-5.880000114440918 2,-5.658999919891357 C4.329999923706055,-4.835000038146973 6,-2.611999988555908 6,0 C6,2.611999988555908 4.329999923706055,4.835000038146973 2,5.6579999923706055 C1.375,5.880000114440918 0.7009999752044678,6 0,6 C-3.312999963760376,6 -6,3.312999963760376 -6,0z"></path></g></g><g transform="matrix(1,0,0,1,0,0)" opacity="1" style="display: block;"><g opacity="1" transform="matrix(1,0,0,1,9.5,24)"><path fill="rgb(83,109,121)" fill-opacity="1" d=" M4.5,8 C4.5,8 -2.5,8 -2.5,8 C-3.6050000190734863,8 -4.5,7.105000019073486 -4.5,6 C-4.5,6 -4.5,-6 -4.5,-6 C-4.5,-7.105000019073486 -3.6050000190734863,-8 -2.5,-8 C-2.5,-8 4.5,-8 4.5,-8 C4.5,-8 4.5,8 4.5,8z"></path></g><g opacity="1" transform="matrix(1,0,0,1,20,24)"><path fill="rgb(120,144,156)" fill-opacity="1" d=" M6,18 C6,18 -6,8 -6,8 C-6,8 -6,-8 -6,-8 C-6,-8 6,-18 6,-18 C6,-18 6,18 6,18z"></path></g></g></g></svg>