<svg width="359" height="800" viewBox="0 0 359 800" fill="none" xmlns="http://www.w3.org/2000/svg" xmlns:xlink="http://www.w3.org/1999/xlink">
<g filter="url(#filter0_d_3_144)">
<path d="M32.8182 590.409C33.7727 590.417 34.7273 590.598 35.6818 590.955C36.6364 591.311 37.5076 591.902 38.2955 592.727C39.0833 593.545 39.7159 594.663 40.1932 596.08C40.6705 597.496 40.9091 599.273 40.9091 601.409C40.9091 603.477 40.7121 605.314 40.3182 606.92C39.9318 608.519 39.3712 609.867 38.6364 610.966C37.9091 612.064 37.0227 612.898 35.9773 613.466C34.9394 614.034 33.7652 614.318 32.4545 614.318C31.1515 614.318 29.9886 614.061 28.9659 613.545C27.9508 613.023 27.1174 612.299 26.4659 611.375C25.822 610.443 25.4091 609.364 25.2273 608.136H28C28.25 609.205 28.7462 610.087 29.4886 610.784C30.2386 611.473 31.2273 611.818 32.4545 611.818C34.25 611.818 35.6667 611.034 36.7045 609.466C37.75 607.898 38.2727 605.682 38.2727 602.818H38.0909C37.6667 603.455 37.1629 604.004 36.5795 604.466C35.9962 604.928 35.3485 605.284 34.6364 605.534C33.9242 605.784 33.1667 605.909 32.3636 605.909C31.0303 605.909 29.8068 605.58 28.6932 604.92C27.5871 604.254 26.7008 603.341 26.0341 602.182C25.375 601.015 25.0455 599.682 25.0455 598.182C25.0455 596.758 25.3636 595.455 26 594.273C26.6439 593.083 27.5455 592.136 28.7045 591.432C29.8712 590.727 31.2424 590.386 32.8182 590.409ZM32.8182 592.909C31.8636 592.909 31.0038 593.148 30.2386 593.625C29.4811 594.095 28.8788 594.731 28.4318 595.534C27.9924 596.33 27.7727 597.212 27.7727 598.182C27.7727 599.152 27.9848 600.034 28.4091 600.83C28.8409 601.617 29.428 602.246 30.1705 602.716C30.9205 603.178 31.7727 603.409 32.7273 603.409C33.447 603.409 34.1174 603.269 34.7386 602.989C35.3598 602.701 35.9015 602.311 36.3636 601.818C36.8333 601.318 37.2008 600.754 37.4659 600.125C37.7311 599.489 37.8636 598.826 37.8636 598.136C37.8636 597.227 37.6439 596.375 37.2045 595.58C36.7727 594.784 36.1742 594.14 35.4091 593.648C34.6515 593.155 33.7879 592.909 32.8182 592.909ZM52.7869 590.409C53.7415 590.417 54.696 590.598 55.6506 590.955C56.6051 591.311 57.4763 591.902 58.2642 592.727C59.0521 593.545 59.6847 594.663 60.1619 596.08C60.6392 597.496 60.8778 599.273 60.8778 601.409C60.8778 603.477 60.6809 605.314 60.2869 606.92C59.9006 608.519 59.34 609.867 58.6051 610.966C57.8778 612.064 56.9915 612.898 55.946 613.466C54.9081 614.034 53.7339 614.318 52.4233 614.318C51.1203 614.318 49.9574 614.061 48.9347 613.545C47.9195 613.023 47.0862 612.299 46.4347 611.375C45.7907 610.443 45.3778 609.364 45.196 608.136H47.9688C48.2188 609.205 48.715 610.087 49.4574 610.784C50.2074 611.473 51.196 611.818 52.4233 611.818C54.2188 611.818 55.6354 611.034 56.6733 609.466C57.7188 607.898 58.2415 605.682 58.2415 602.818H58.0597C57.6354 603.455 57.1316 604.004 56.5483 604.466C55.965 604.928 55.3172 605.284 54.6051 605.534C53.893 605.784 53.1354 605.909 52.3324 605.909C50.9991 605.909 49.7756 605.58 48.6619 604.92C47.5559 604.254 46.6695 603.341 46.0028 602.182C45.3438 601.015 45.0142 599.682 45.0142 598.182C45.0142 596.758 45.3324 595.455 45.9688 594.273C46.6127 593.083 47.5142 592.136 48.6733 591.432C49.84 590.727 51.2112 590.386 52.7869 590.409ZM52.7869 592.909C51.8324 592.909 50.9725 593.148 50.2074 593.625C49.4498 594.095 48.8475 594.731 48.4006 595.534C47.9612 596.33 47.7415 597.212 47.7415 598.182C47.7415 599.152 47.9536 600.034 48.3778 600.83C48.8097 601.617 49.3968 602.246 50.1392 602.716C50.8892 603.178 51.7415 603.409 52.696 603.409C53.4157 603.409 54.0862 603.269 54.7074 602.989C55.3286 602.701 55.8703 602.311 56.3324 601.818C56.8021 601.318 57.1695 600.754 57.4347 600.125C57.6998 599.489 57.8324 598.826 57.8324 598.136C57.8324 597.227 57.6127 596.375 57.1733 595.58C56.7415 594.784 56.143 594.14 55.3778 593.648C54.6203 593.155 53.7566 592.909 52.7869 592.909ZM93.2102 590.727V614H90.483L77.8011 595.727H77.5739V614H74.7557V590.727H77.483L90.2102 609.045H90.4375V590.727H93.2102ZM103.622 614.409C102.516 614.409 101.512 614.201 100.611 613.784C99.7093 613.36 98.9934 612.75 98.4631 611.955C97.9328 611.152 97.6676 610.182 97.6676 609.045C97.6676 608.045 97.8646 607.235 98.2585 606.614C98.6525 605.985 99.179 605.492 99.8381 605.136C100.497 604.78 101.224 604.515 102.02 604.341C102.823 604.159 103.63 604.015 104.44 603.909C105.501 603.773 106.361 603.67 107.02 603.602C107.687 603.527 108.171 603.402 108.474 603.227C108.785 603.053 108.94 602.75 108.94 602.318V602.227C108.94 601.106 108.634 600.235 108.02 599.614C107.414 598.992 106.493 598.682 105.259 598.682C103.978 598.682 102.974 598.962 102.247 599.523C101.52 600.083 101.009 600.682 100.713 601.318L98.1676 600.409C98.6222 599.348 99.2282 598.523 99.9858 597.932C100.751 597.333 101.584 596.917 102.486 596.682C103.395 596.439 104.289 596.318 105.168 596.318C105.728 596.318 106.372 596.386 107.099 596.523C107.834 596.652 108.543 596.92 109.224 597.33C109.914 597.739 110.486 598.356 110.94 599.182C111.395 600.008 111.622 601.114 111.622 602.5V614H108.94V611.636H108.804C108.622 612.015 108.319 612.42 107.895 612.852C107.471 613.284 106.906 613.652 106.202 613.955C105.497 614.258 104.637 614.409 103.622 614.409ZM104.031 612C105.092 612 105.986 611.792 106.713 611.375C107.448 610.958 108.001 610.42 108.372 609.761C108.751 609.102 108.94 608.409 108.94 607.682V605.227C108.827 605.364 108.577 605.489 108.19 605.602C107.812 605.708 107.372 605.803 106.872 605.886C106.38 605.962 105.899 606.03 105.429 606.091C104.967 606.144 104.592 606.189 104.304 606.227C103.607 606.318 102.955 606.466 102.349 606.67C101.751 606.867 101.266 607.167 100.895 607.568C100.531 607.962 100.349 608.5 100.349 609.182C100.349 610.114 100.694 610.818 101.384 611.295C102.08 611.765 102.963 612 104.031 612ZM116.517 614V596.545H119.108V599.273H119.335C119.699 598.341 120.286 597.617 121.097 597.102C121.907 596.58 122.881 596.318 124.017 596.318C125.169 596.318 126.127 596.58 126.892 597.102C127.665 597.617 128.267 598.341 128.699 599.273H128.881C129.328 598.371 129.998 597.655 130.892 597.125C131.786 596.587 132.858 596.318 134.108 596.318C135.669 596.318 136.945 596.807 137.938 597.784C138.93 598.754 139.426 600.265 139.426 602.318V614H136.744V602.318C136.744 601.03 136.392 600.11 135.688 599.557C134.983 599.004 134.153 598.727 133.199 598.727C131.972 598.727 131.021 599.098 130.347 599.841C129.672 600.576 129.335 601.508 129.335 602.636V614H126.608V602.045C126.608 601.053 126.286 600.254 125.642 599.648C124.998 599.034 124.169 598.727 123.153 598.727C122.456 598.727 121.805 598.913 121.199 599.284C120.6 599.655 120.116 600.17 119.744 600.83C119.381 601.481 119.199 602.235 119.199 603.091V614H116.517ZM151.648 614.364C149.966 614.364 148.515 613.992 147.295 613.25C146.083 612.5 145.148 611.455 144.489 610.114C143.837 608.765 143.511 607.197 143.511 605.409C143.511 603.621 143.837 602.045 144.489 600.682C145.148 599.311 146.064 598.242 147.239 597.477C148.42 596.705 149.799 596.318 151.375 596.318C152.284 596.318 153.182 596.47 154.068 596.773C154.955 597.076 155.761 597.568 156.489 598.25C157.216 598.924 157.795 599.818 158.227 600.932C158.659 602.045 158.875 603.417 158.875 605.045V606.182H145.42V603.864H156.148C156.148 602.879 155.951 602 155.557 601.227C155.17 600.455 154.617 599.845 153.898 599.398C153.186 598.951 152.345 598.727 151.375 598.727C150.307 598.727 149.383 598.992 148.602 599.523C147.83 600.045 147.235 600.727 146.818 601.568C146.402 602.409 146.193 603.311 146.193 604.273V605.818C146.193 607.136 146.42 608.254 146.875 609.17C147.337 610.08 147.977 610.773 148.795 611.25C149.614 611.72 150.564 611.955 151.648 611.955C152.352 611.955 152.989 611.856 153.557 611.659C154.133 611.455 154.629 611.152 155.045 610.75C155.462 610.341 155.784 609.833 156.011 609.227L158.602 609.955C158.33 610.833 157.871 611.606 157.227 612.273C156.583 612.932 155.788 613.447 154.841 613.818C153.894 614.182 152.83 614.364 151.648 614.364ZM175.318 600.455L172.909 601.136C172.758 600.735 172.534 600.345 172.239 599.966C171.951 599.58 171.557 599.261 171.057 599.011C170.557 598.761 169.917 598.636 169.136 598.636C168.068 598.636 167.178 598.883 166.466 599.375C165.761 599.86 165.409 600.477 165.409 601.227C165.409 601.894 165.652 602.42 166.136 602.807C166.621 603.193 167.379 603.515 168.409 603.773L171 604.409C172.561 604.788 173.723 605.367 174.489 606.148C175.254 606.92 175.636 607.917 175.636 609.136C175.636 610.136 175.348 611.03 174.773 611.818C174.205 612.606 173.409 613.227 172.386 613.682C171.364 614.136 170.174 614.364 168.818 614.364C167.038 614.364 165.564 613.977 164.398 613.205C163.231 612.432 162.492 611.303 162.182 609.818L164.727 609.182C164.97 610.121 165.428 610.826 166.102 611.295C166.784 611.765 167.674 612 168.773 612C170.023 612 171.015 611.735 171.75 611.205C172.492 610.667 172.864 610.023 172.864 609.273C172.864 608.667 172.652 608.159 172.227 607.75C171.803 607.333 171.152 607.023 170.273 606.818L167.364 606.136C165.765 605.758 164.591 605.17 163.841 604.375C163.098 603.572 162.727 602.568 162.727 601.364C162.727 600.379 163.004 599.508 163.557 598.75C164.117 597.992 164.879 597.398 165.841 596.966C166.811 596.534 167.909 596.318 169.136 596.318C170.864 596.318 172.22 596.697 173.205 597.455C174.197 598.212 174.902 599.212 175.318 600.455ZM208.673 602.364C208.673 604.818 208.23 606.939 207.344 608.727C206.457 610.515 205.241 611.894 203.696 612.864C202.151 613.833 200.385 614.318 198.401 614.318C196.416 614.318 194.651 613.833 193.105 612.864C191.56 611.894 190.344 610.515 189.457 608.727C188.571 606.939 188.128 604.818 188.128 602.364C188.128 599.909 188.571 597.788 189.457 596C190.344 594.212 191.56 592.833 193.105 591.864C194.651 590.894 196.416 590.409 198.401 590.409C200.385 590.409 202.151 590.894 203.696 591.864C205.241 592.833 206.457 594.212 207.344 596C208.23 597.788 208.673 599.909 208.673 602.364ZM205.946 602.364C205.946 600.348 205.609 598.648 204.935 597.261C204.268 595.875 203.363 594.826 202.219 594.114C201.082 593.402 199.81 593.045 198.401 593.045C196.991 593.045 195.715 593.402 194.571 594.114C193.435 594.826 192.529 595.875 191.855 597.261C191.188 598.648 190.855 600.348 190.855 602.364C190.855 604.379 191.188 606.08 191.855 607.466C192.529 608.852 193.435 609.902 194.571 610.614C195.715 611.326 196.991 611.682 198.401 611.682C199.81 611.682 201.082 611.326 202.219 610.614C203.363 609.902 204.268 608.852 204.935 607.466C205.609 606.08 205.946 604.379 205.946 602.364ZM220.821 596.545V598.818H211.412V596.545H220.821ZM214.23 614V594.136C214.23 593.136 214.465 592.303 214.935 591.636C215.404 590.97 216.014 590.47 216.764 590.136C217.514 589.803 218.306 589.636 219.139 589.636C219.798 589.636 220.336 589.689 220.753 589.795C221.17 589.902 221.48 590 221.685 590.091L220.912 592.409C220.776 592.364 220.586 592.307 220.344 592.239C220.109 592.17 219.798 592.136 219.412 592.136C218.526 592.136 217.885 592.36 217.491 592.807C217.105 593.254 216.912 593.909 216.912 594.773V614H214.23ZM234.898 614H231.943L240.489 590.727H243.398L251.943 614H248.989L242.034 594.409H241.852L234.898 614ZM235.989 604.909H247.898V607.409H235.989V604.909ZM255.568 614V590.727H258.386V611.5H269.205V614H255.568ZM273.568 614V590.727H276.386V611.5H287.205V614H273.568ZM293.991 614H291.037L299.582 590.727H302.491L311.037 614H308.082L301.128 594.409H300.946L293.991 614ZM295.082 604.909H306.991V607.409H295.082V604.909ZM314.662 614V590.727H317.48V601.091H329.889V590.727H332.707V614H329.889V603.591H317.48V614H314.662Z" fill="url(#paint0_linear_3_144)" shape-rendering="crispEdges"/>
<path d="M32.8182 590.409L32.8038 591.409L32.8102 591.409L32.8182 590.409ZM35.6818 590.955L36.0313 590.018L36.0313 590.018L35.6818 590.955ZM38.2955 592.727L37.5719 593.418L37.5751 593.421L38.2955 592.727ZM40.1932 596.08L39.2455 596.399V596.399L40.1932 596.08ZM40.3182 606.92L39.347 606.682L39.3462 606.686L40.3182 606.92ZM38.6364 610.966L37.8052 610.41L37.8025 610.414L38.6364 610.966ZM35.9773 613.466L35.4998 612.587L35.4971 612.589L35.9773 613.466ZM28.9659 613.545L28.5081 614.435L28.5161 614.439L28.9659 613.545ZM26.4659 611.375L25.6432 611.944L25.6486 611.951L26.4659 611.375ZM25.2273 608.136V607.136H24.0682L24.2381 608.283L25.2273 608.136ZM28 608.136L28.9737 607.908L28.793 607.136H28V608.136ZM29.4886 610.784L28.8042 611.513L28.8119 611.52L29.4886 610.784ZM36.7045 609.466L35.8725 608.911L35.8706 608.914L36.7045 609.466ZM38.2727 602.818H39.2727V601.818H38.2727V602.818ZM38.0909 602.818V601.818H37.5557L37.2589 602.263L38.0909 602.818ZM28.6932 604.92L28.1769 605.777L28.1839 605.781L28.6932 604.92ZM26.0341 602.182L25.1634 602.674L25.1672 602.68L26.0341 602.182ZM26 594.273L25.1206 593.797L25.1195 593.799L26 594.273ZM28.7045 591.432L28.1876 590.576L28.1851 590.577L28.7045 591.432ZM30.2386 593.625L30.7656 594.475L30.7679 594.473L30.2386 593.625ZM28.4318 595.534L27.558 595.048L27.5565 595.051L28.4318 595.534ZM28.4091 600.83L27.5267 601.3L27.5322 601.31L28.4091 600.83ZM30.1705 602.716L29.6358 603.561L29.6459 603.567L30.1705 602.716ZM34.7386 602.989L35.1499 603.9L35.1591 603.896L34.7386 602.989ZM36.3636 601.818L35.6348 601.134L35.6344 601.134L36.3636 601.818ZM37.4659 600.125L38.3873 600.514L38.389 600.51L37.4659 600.125ZM37.2045 595.58L36.3257 596.057L36.3292 596.063L37.2045 595.58ZM35.4091 593.648L34.8641 594.486L34.8679 594.489L35.4091 593.648ZM32.8102 591.409C33.6405 591.416 34.4797 591.573 35.3323 591.891L36.0313 590.018C34.9749 589.624 33.905 589.418 32.8261 589.409L32.8102 591.409ZM35.3323 591.891C36.1289 592.189 36.8758 592.688 37.5719 593.418L39.019 592.037C38.1393 591.115 37.1438 590.433 36.0313 590.018L35.3323 591.891ZM37.5751 593.421C38.2335 594.105 38.8012 595.08 39.2455 596.399L41.1408 595.76C40.6307 594.246 39.9332 592.986 39.0158 592.034L37.5751 593.421ZM39.2455 596.399C39.6767 597.679 39.9091 599.339 39.9091 601.409H41.9091C41.9091 599.207 41.6642 597.314 41.1408 595.76L39.2455 596.399ZM39.9091 601.409C39.9091 603.416 39.7177 605.171 39.347 606.682L41.2894 607.159C41.7065 605.458 41.9091 603.538 41.9091 601.409H39.9091ZM39.3462 606.686C38.981 608.196 38.4608 609.43 37.8052 610.41L39.4675 611.522C40.2817 610.305 40.8827 608.841 41.2902 607.155L39.3462 606.686ZM37.8025 610.414C37.1557 611.391 36.3866 612.105 35.4998 612.587L36.4548 614.345C37.6588 613.69 38.6625 612.738 39.4702 611.518L37.8025 610.414ZM35.4971 612.589C34.6218 613.068 33.6158 613.318 32.4545 613.318V615.318C33.9145 615.318 35.257 615 36.4575 614.343L35.4971 612.589ZM32.4545 613.318C31.2861 613.318 30.2808 613.088 29.4158 612.652L28.5161 614.439C29.6965 615.033 31.0169 615.318 32.4545 615.318V613.318ZM29.4237 612.656C28.5504 612.207 27.8409 611.59 27.2832 610.799L25.6486 611.951C26.3939 613.008 27.3511 613.839 28.5081 614.435L29.4237 612.656ZM27.2886 610.806C26.7398 610.012 26.378 609.08 26.2165 607.99L24.2381 608.283C24.4402 609.647 24.9041 610.874 25.6432 611.944L27.2886 610.806ZM25.2273 609.136H28V607.136H25.2273V609.136ZM27.0263 608.364C27.3176 609.609 27.9069 610.671 28.8042 611.513L30.1731 610.055C29.5856 609.503 29.1824 608.8 28.9737 607.908L27.0263 608.364ZM28.8119 611.52C29.7828 612.413 31.0308 612.818 32.4545 612.818V610.818C31.4238 610.818 30.6945 610.534 30.1654 610.048L28.8119 611.52ZM32.4545 612.818C34.6041 612.818 36.3259 611.85 37.5385 610.018L35.8706 608.914C35.0074 610.218 33.8959 610.818 32.4545 610.818V612.818ZM37.5366 610.021C38.7347 608.223 39.2727 605.784 39.2727 602.818H37.2727C37.2727 605.58 36.7653 607.572 35.8725 608.911L37.5366 610.021ZM38.2727 601.818H38.0909V603.818H38.2727V601.818ZM37.2589 602.263C36.891 602.815 36.4578 603.287 35.9586 603.682L37.2005 605.25C37.868 604.721 38.4424 604.094 38.923 603.373L37.2589 602.263ZM35.9586 603.682C35.4635 604.074 34.914 604.377 34.3051 604.591L34.9676 606.478C35.783 606.191 36.5289 605.782 37.2005 605.25L35.9586 603.682ZM34.3051 604.591C33.7061 604.801 33.0611 604.909 32.3636 604.909V606.909C33.2722 606.909 34.1424 606.767 34.9676 606.478L34.3051 604.591ZM32.3636 604.909C31.2038 604.909 30.1571 604.625 29.2025 604.06L28.1839 605.781C29.4565 606.534 30.8568 606.909 32.3636 606.909V604.909ZM29.2094 604.064C28.254 603.488 27.4861 602.701 26.9009 601.683L25.1672 602.68C25.9154 603.981 26.9203 605.019 28.177 605.777L29.2094 604.064ZM26.9048 601.69C26.3402 600.691 26.0455 599.53 26.0455 598.182H24.0455C24.0455 599.833 24.4098 601.34 25.1634 602.674L26.9048 601.69ZM26.0455 598.182C26.0455 596.913 26.3274 595.774 26.8805 594.747L25.1195 593.799C24.3999 595.135 24.0455 596.603 24.0455 598.182H26.0455ZM26.8794 594.749C27.4387 593.716 28.2158 592.899 29.224 592.286L28.1851 590.577C26.8751 591.374 25.8492 592.451 25.1206 593.797L26.8794 594.749ZM29.2215 592.288C30.2042 591.694 31.3853 591.389 32.8038 591.409L32.8326 589.409C31.0996 589.384 29.5382 589.76 28.1876 590.576L29.2215 592.288ZM32.8182 591.909C31.688 591.909 30.6427 592.194 29.7094 592.777L30.7679 594.473C31.3648 594.101 32.0393 593.909 32.8182 593.909V591.909ZM29.7117 592.775C28.8048 593.337 28.0851 594.101 27.5581 595.048L29.3056 596.02C29.6725 595.361 30.1573 594.852 30.7656 594.475L29.7117 592.775ZM27.5565 595.051C27.0298 596.004 26.7727 597.055 26.7727 598.182H28.7727C28.7727 597.37 28.955 596.655 29.3072 596.018L27.5565 595.051ZM26.7727 598.182C26.7727 599.303 27.0195 600.349 27.5267 601.3L29.2914 600.359C28.9502 599.719 28.7727 599 28.7727 598.182H26.7727ZM27.5322 601.31C28.0434 602.243 28.7469 602.999 29.6358 603.561L30.7051 601.871C30.1091 601.494 29.6384 600.992 29.286 600.349L27.5322 601.31ZM29.6459 603.567C30.5667 604.135 31.6035 604.409 32.7273 604.409V602.409C31.9419 602.409 31.2742 602.221 30.695 601.865L29.6459 603.567ZM32.7273 604.409C33.5807 604.409 34.3923 604.242 35.1499 603.9L34.3273 602.077C33.8426 602.296 33.3133 602.409 32.7273 602.409V604.409ZM35.1591 603.896C35.8949 603.555 36.5418 603.09 37.0928 602.502L35.6344 601.134C35.2612 601.532 34.8248 601.847 34.3182 602.081L35.1591 603.896ZM37.0925 602.503C37.643 601.917 38.0758 601.252 38.3873 600.514L36.5445 599.736C36.3257 600.255 36.0237 600.72 35.6348 601.134L37.0925 602.503ZM38.389 600.51C38.7049 599.751 38.8636 598.958 38.8636 598.136H36.8636C36.8636 598.694 36.7572 599.226 36.5428 599.74L38.389 600.51ZM38.8636 598.136C38.8636 597.058 38.6011 596.04 38.0799 595.096L36.3292 596.063C36.6868 596.71 36.8636 597.396 36.8636 598.136H38.8636ZM38.0834 595.102C37.5709 594.158 36.856 593.39 35.9503 592.807L34.8679 594.489C35.4925 594.891 35.9745 595.41 36.3257 596.057L38.0834 595.102ZM35.9541 592.809C35.0223 592.204 33.9665 591.909 32.8182 591.909V593.909C33.6092 593.909 34.2807 594.107 34.8641 594.486L35.9541 592.809ZM52.7869 590.409L52.7725 591.409L52.779 591.409L52.7869 590.409ZM55.6506 590.955L56.0001 590.018V590.018L55.6506 590.955ZM58.2642 592.727L57.5407 593.418L57.5439 593.421L58.2642 592.727ZM60.1619 596.08L59.2143 596.399V596.399L60.1619 596.08ZM60.2869 606.92L59.3157 606.682L59.3149 606.686L60.2869 606.92ZM58.6051 610.966L57.7739 610.41L57.7713 610.414L58.6051 610.966ZM55.946 613.466L55.4685 612.587L55.4658 612.589L55.946 613.466ZM48.9347 613.545L48.4768 614.435L48.4848 614.439L48.9347 613.545ZM46.4347 611.375L45.6119 611.944L45.6173 611.951L46.4347 611.375ZM45.196 608.136V607.136H44.037L44.2068 608.283L45.196 608.136ZM47.9688 608.136L48.9424 607.908L48.7617 607.136H47.9688V608.136ZM49.4574 610.784L48.7729 611.513L48.7807 611.52L49.4574 610.784ZM56.6733 609.466L55.8412 608.911L55.8394 608.914L56.6733 609.466ZM58.2415 602.818H59.2415V601.818H58.2415V602.818ZM58.0597 602.818V601.818H57.5245L57.2276 602.263L58.0597 602.818ZM48.6619 604.92L48.1457 605.777L48.1526 605.781L48.6619 604.92ZM46.0028 602.182L45.1321 602.674L45.136 602.68L46.0028 602.182ZM45.9688 594.273L45.0894 593.797L45.0883 593.799L45.9688 594.273ZM48.6733 591.432L48.1563 590.576L48.1539 590.577L48.6733 591.432ZM50.2074 593.625L50.7343 594.475L50.7366 594.473L50.2074 593.625ZM48.4006 595.534L47.5268 595.048L47.5252 595.051L48.4006 595.534ZM48.3778 600.83L47.4954 601.3L47.5009 601.31L48.3778 600.83ZM50.1392 602.716L49.6045 603.561L49.6146 603.567L50.1392 602.716ZM54.7074 602.989L55.1187 603.9L55.1278 603.896L54.7074 602.989ZM56.3324 601.818L55.6035 601.134L55.6032 601.134L56.3324 601.818ZM57.4347 600.125L58.3561 600.514L58.3577 600.51L57.4347 600.125ZM57.1733 595.58L56.2944 596.057L56.298 596.063L57.1733 595.58ZM55.3778 593.648L54.8328 594.486L54.8367 594.489L55.3778 593.648ZM52.779 591.409C53.6092 591.416 54.4484 591.573 55.3011 591.891L56.0001 590.018C54.9436 589.624 53.8737 589.418 52.7949 589.409L52.779 591.409ZM55.3011 591.891C56.0977 592.189 56.8446 592.688 57.5407 593.418L58.9877 592.037C58.1081 591.115 57.1126 590.433 56.0001 590.018L55.3011 591.891ZM57.5439 593.421C58.2022 594.105 58.7699 595.08 59.2143 596.399L61.1096 595.76C60.5994 594.246 59.902 592.986 58.9845 592.034L57.5439 593.421ZM59.2143 596.399C59.6455 597.679 59.8778 599.339 59.8778 601.409H61.8778C61.8778 599.207 61.6329 597.314 61.1096 595.76L59.2143 596.399ZM59.8778 601.409C59.8778 603.416 59.6865 605.171 59.3157 606.682L61.2581 607.159C61.6753 605.458 61.8778 603.538 61.8778 601.409H59.8778ZM59.3149 606.686C58.9497 608.196 58.4295 609.43 57.7739 610.41L59.4363 611.522C60.2504 610.305 60.8514 608.841 61.2589 607.155L59.3149 606.686ZM57.7713 610.414C57.1245 611.391 56.3554 612.105 55.4685 612.587L56.4235 614.345C57.6276 613.69 58.6312 612.738 59.4389 611.518L57.7713 610.414ZM55.4658 612.589C54.5905 613.068 53.5845 613.318 52.4233 613.318V615.318C53.8833 615.318 55.2257 615 56.4262 614.343L55.4658 612.589ZM52.4233 613.318C51.2548 613.318 50.2496 613.088 49.3845 612.652L48.4848 614.439C49.6652 615.033 50.9857 615.318 52.4233 615.318V613.318ZM49.3925 612.656C48.5192 612.207 47.8097 611.59 47.252 610.799L45.6173 611.951C46.3627 613.008 47.3199 613.839 48.4769 614.435L49.3925 612.656ZM47.2573 610.806C46.7086 610.012 46.3468 609.08 46.1852 607.99L44.2068 608.283C44.4089 609.647 44.8729 610.874 45.612 611.944L47.2573 610.806ZM45.196 609.136H47.9688V607.136H45.196V609.136ZM46.9951 608.364C47.2863 609.609 47.8756 610.671 48.773 611.513L50.1418 610.055C49.5543 609.503 49.1512 608.8 48.9424 607.908L46.9951 608.364ZM48.7807 611.52C49.7515 612.413 50.9995 612.818 52.4233 612.818V610.818C51.3925 610.818 50.6632 610.534 50.1341 610.048L48.7807 611.52ZM52.4233 612.818C54.5729 612.818 56.2946 611.85 57.5072 610.018L55.8394 608.914C54.9762 610.218 53.8646 610.818 52.4233 610.818V612.818ZM57.5053 610.021C58.7035 608.223 59.2415 605.784 59.2415 602.818H57.2415C57.2415 605.58 56.734 607.572 55.8412 608.911L57.5053 610.021ZM58.2415 601.818H58.0597V603.818H58.2415V601.818ZM57.2276 602.263C56.8597 602.815 56.4265 603.287 55.9273 603.682L57.1693 605.25C57.8368 604.721 58.4111 604.094 58.8917 603.373L57.2276 602.263ZM55.9273 603.682C55.4323 604.074 54.8827 604.377 54.2739 604.591L54.9364 606.478C55.7517 606.191 56.4976 605.782 57.1693 605.25L55.9273 603.682ZM54.2739 604.591C53.6748 604.801 53.0299 604.909 52.3324 604.909V606.909C53.241 606.909 54.1112 606.767 54.9364 606.478L54.2739 604.591ZM52.3324 604.909C51.1726 604.909 50.1258 604.625 49.1713 604.06L48.1526 605.781C49.4253 606.534 50.8256 606.909 52.3324 606.909V604.909ZM49.1782 604.064C48.2227 603.488 47.4549 602.701 46.8697 601.683L45.136 602.68C45.8842 603.981 46.889 605.019 48.1457 605.777L49.1782 604.064ZM46.8735 601.69C46.309 600.691 46.0142 599.53 46.0142 598.182H44.0142C44.0142 599.833 44.3785 601.34 45.1322 602.674L46.8735 601.69ZM46.0142 598.182C46.0142 596.913 46.2961 595.774 46.8492 594.747L45.0883 593.799C44.3687 595.135 44.0142 596.603 44.0142 598.182H46.0142ZM46.8481 594.749C47.4075 593.716 48.1846 592.899 49.1927 592.286L48.1539 590.577C46.8439 591.374 45.8179 592.451 45.0894 593.797L46.8481 594.749ZM49.1902 592.288C50.173 591.694 51.354 591.389 52.7725 591.409L52.8014 589.409C51.0683 589.384 49.5069 589.76 48.1563 590.576L49.1902 592.288ZM52.7869 591.909C51.6567 591.909 50.6115 592.194 49.6781 592.777L50.7366 594.473C51.3336 594.101 52.0081 593.909 52.7869 593.909V591.909ZM49.6804 592.775C48.7736 593.337 48.0539 594.101 47.5268 595.048L49.2743 596.02C49.6412 595.361 50.126 594.852 50.7343 594.475L49.6804 592.775ZM47.5252 595.051C46.9986 596.004 46.7415 597.055 46.7415 598.182H48.7415C48.7415 597.37 48.9238 596.655 49.2759 596.018L47.5252 595.051ZM46.7415 598.182C46.7415 599.303 46.9882 600.349 47.4955 601.3L49.2602 600.359C48.919 599.719 48.7415 599 48.7415 598.182H46.7415ZM47.5009 601.31C48.0122 602.243 48.7157 602.999 49.6046 603.561L50.6738 601.871C50.0779 601.494 49.6071 600.992 49.2548 600.349L47.5009 601.31ZM49.6146 603.567C50.5355 604.135 51.5723 604.409 52.696 604.409V602.409C51.9107 602.409 51.2429 602.221 50.6638 601.865L49.6146 603.567ZM52.696 604.409C53.5494 604.409 54.361 604.242 55.1187 603.9L54.2961 602.077C53.8113 602.296 53.282 602.409 52.696 602.409V604.409ZM55.1278 603.896C55.8637 603.555 56.5105 603.09 57.0616 602.502L55.6032 601.134C55.23 601.532 54.7935 601.847 54.2869 602.081L55.1278 603.896ZM57.0612 602.503C57.6117 601.917 58.0446 601.252 58.3561 600.514L56.5132 599.736C56.2944 600.255 55.9924 600.72 55.6035 601.134L57.0612 602.503ZM58.3577 600.51C58.6737 599.751 58.8324 598.958 58.8324 598.136H56.8324C56.8324 598.694 56.726 599.226 56.5116 599.74L58.3577 600.51ZM58.8324 598.136C58.8324 597.058 58.5698 596.04 58.0486 595.096L56.298 596.063C56.6555 596.71 56.8324 597.396 56.8324 598.136H58.8324ZM58.0522 595.102C57.5397 594.158 56.8247 593.39 55.919 592.807L54.8367 594.489C55.4613 594.891 55.9433 595.41 56.2944 596.057L58.0522 595.102ZM55.9228 592.809C54.9911 592.204 53.9353 591.909 52.7869 591.909V593.909C53.578 593.909 54.2495 594.107 54.8329 594.486L55.9228 592.809ZM93.2102 590.727H94.2102V589.727H93.2102V590.727ZM93.2102 614V615H94.2102V614H93.2102ZM90.483 614L89.6614 614.57L89.9597 615H90.483V614ZM77.8011 595.727L78.6227 595.157L78.3243 594.727H77.8011V595.727ZM77.5739 595.727V594.727H76.5739V595.727H77.5739ZM77.5739 614V615H78.5739V614H77.5739ZM74.7557 614H73.7557V615H74.7557V614ZM74.7557 590.727V589.727H73.7557V590.727H74.7557ZM77.483 590.727L78.3042 590.157L78.0058 589.727H77.483V590.727ZM90.2102 609.045L89.389 609.616L89.6873 610.045H90.2102V609.045ZM90.4375 609.045V610.045H91.4375V609.045H90.4375ZM90.4375 590.727V589.727H89.4375V590.727H90.4375ZM92.2102 590.727V614H94.2102V590.727H92.2102ZM93.2102 613H90.483V615H93.2102V613ZM91.3045 613.43L78.6227 595.157L76.9796 596.297L89.6614 614.57L91.3045 613.43ZM77.8011 594.727H77.5739V596.727H77.8011V594.727ZM76.5739 595.727V614H78.5739V595.727H76.5739ZM77.5739 613H74.7557V615H77.5739V613ZM75.7557 614V590.727H73.7557V614H75.7557ZM74.7557 591.727H77.483V589.727H74.7557V591.727ZM76.6617 591.298L89.389 609.616L91.0315 608.475L78.3042 590.157L76.6617 591.298ZM90.2102 610.045H90.4375V608.045H90.2102V610.045ZM91.4375 609.045V590.727H89.4375V609.045H91.4375ZM90.4375 591.727H93.2102V589.727H90.4375V591.727ZM100.611 613.784L100.185 614.689L100.191 614.692L100.611 613.784ZM98.4631 611.955L97.6286 612.506L97.631 612.509L98.4631 611.955ZM98.2585 606.614L99.103 607.149L99.1059 607.145L98.2585 606.614ZM102.02 604.341L102.234 605.318L102.241 605.316L102.02 604.341ZM104.44 603.909L104.313 602.917L104.311 602.918L104.44 603.909ZM107.02 603.602L107.123 604.597L107.133 604.596L107.02 603.602ZM108.474 603.227L107.985 602.355L107.976 602.36L108.474 603.227ZM108.02 599.614L107.304 600.312L107.308 600.316L108.02 599.614ZM102.247 599.523L102.858 600.315L102.247 599.523ZM100.713 601.318L100.377 602.26L101.236 602.567L101.62 601.739L100.713 601.318ZM98.1676 600.409L97.2485 600.015L96.8294 600.993L97.8313 601.351L98.1676 600.409ZM99.9858 597.932L100.601 598.72L100.602 598.719L99.9858 597.932ZM102.486 596.682L102.738 597.65L102.743 597.648L102.486 596.682ZM107.099 596.523L106.915 597.506L106.927 597.508L107.099 596.523ZM109.224 597.33L108.71 598.187L108.714 598.19L109.224 597.33ZM110.94 599.182L110.064 599.664L110.94 599.182ZM111.622 614V615H112.622V614H111.622ZM108.94 614H107.94V615H108.94V614ZM108.94 611.636H109.94V610.636H108.94V611.636ZM108.804 611.636V610.636H108.175L107.902 611.204L108.804 611.636ZM107.895 612.852L108.608 613.553L107.895 612.852ZM106.202 613.955L105.807 613.036L106.202 613.955ZM106.713 611.375L106.22 610.505L106.216 610.507L106.713 611.375ZM108.372 609.761L107.505 609.263L107.501 609.271L108.372 609.761ZM108.94 605.227H109.94V602.465L108.172 604.587L108.94 605.227ZM108.19 605.602L108.46 606.565L108.473 606.562L108.19 605.602ZM106.872 605.886L107.024 606.875L107.037 606.873L106.872 605.886ZM105.429 606.091L105.543 607.084L105.557 607.083L105.429 606.091ZM104.304 606.227L104.433 607.219L104.434 607.219L104.304 606.227ZM102.349 606.67L102.662 607.62L102.669 607.618L102.349 606.67ZM100.895 607.568L100.161 606.889L100.16 606.89L100.895 607.568ZM101.384 611.295L100.814 612.118L100.825 612.125L101.384 611.295ZM103.622 613.409C102.644 613.409 101.786 613.226 101.03 612.876L100.191 614.692C101.239 615.176 102.388 615.409 103.622 615.409V613.409ZM101.037 612.879C100.293 612.529 99.72 612.037 99.2951 611.4L97.631 612.509C98.2667 613.463 99.126 614.191 100.185 614.689L101.037 612.879ZM99.2975 611.403C98.8935 610.792 98.6676 610.022 98.6676 609.045H96.6676C96.6676 610.342 96.972 611.511 97.6286 612.506L99.2975 611.403ZM98.6676 609.045C98.6676 608.169 98.841 607.562 99.103 607.149L97.414 606.078C96.8882 606.907 96.6676 607.922 96.6676 609.045H98.6676ZM99.1059 607.145C99.4072 606.664 99.8049 606.291 100.313 606.016L99.3628 604.257C98.5531 604.694 97.8978 605.306 97.4111 606.083L99.1059 607.145ZM100.313 606.016C100.883 605.708 101.522 605.474 102.234 605.318L101.806 603.364C100.927 603.557 100.111 603.852 99.3628 604.257L100.313 606.016ZM102.241 605.316C103.014 605.141 103.79 605.003 104.57 604.901L104.311 602.918C103.469 603.028 102.632 603.177 101.799 603.366L102.241 605.316ZM104.568 604.901C105.625 604.765 106.475 604.664 107.123 604.597L106.917 602.608C106.246 602.677 105.377 602.78 104.313 602.917L104.568 604.901ZM107.133 604.596C107.833 604.516 108.487 604.374 108.973 604.094L107.976 602.36C107.856 602.429 107.54 602.537 106.907 602.609L107.133 604.596ZM108.964 604.099C109.662 603.708 109.94 603.021 109.94 602.318H107.94C107.94 602.417 107.922 602.436 107.934 602.413C107.94 602.402 107.95 602.387 107.963 602.374C107.969 602.368 107.974 602.363 107.979 602.36C107.983 602.356 107.986 602.355 107.985 602.355L108.964 604.099ZM109.94 602.318V602.227H107.94V602.318H109.94ZM109.94 602.227C109.94 600.921 109.578 599.768 108.731 598.911L107.308 600.316C107.689 600.701 107.94 601.291 107.94 602.227H109.94ZM108.736 598.915C107.874 598.032 106.647 597.682 105.259 597.682V599.682C106.339 599.682 106.954 599.953 107.304 600.312L108.736 598.915ZM105.259 597.682C103.843 597.682 102.596 597.991 101.637 598.731L102.858 600.315C103.353 599.933 104.114 599.682 105.259 599.682V597.682ZM101.637 598.731C100.82 599.36 100.187 600.077 99.8061 600.897L101.62 601.739C101.83 601.287 102.22 600.807 102.858 600.315L101.637 598.731ZM101.049 600.376L98.504 599.467L97.8313 601.351L100.377 602.26L101.049 600.376ZM99.0868 600.803C99.4882 599.866 100.001 599.188 100.601 598.72L99.3708 597.143C98.4558 597.857 97.7562 598.831 97.2485 600.015L99.0868 600.803ZM100.602 598.719C101.264 598.202 101.974 597.848 102.738 597.65L102.234 595.714C101.194 595.985 100.238 596.465 99.3697 597.144L100.602 598.719ZM102.743 597.648C103.574 597.426 104.382 597.318 105.168 597.318V595.318C104.196 595.318 103.215 595.452 102.228 595.716L102.743 597.648ZM105.168 597.318C105.65 597.318 106.231 597.377 106.915 597.506L107.284 595.54C106.514 595.395 105.806 595.318 105.168 595.318V597.318ZM106.927 597.508C107.533 597.614 108.126 597.837 108.71 598.187L109.739 596.472C108.959 596.004 108.135 595.689 107.272 595.538L106.927 597.508ZM108.714 598.19C109.225 598.493 109.681 598.967 110.064 599.664L111.816 598.7C111.291 597.745 110.603 596.985 109.735 596.47L108.714 598.19ZM110.064 599.664C110.408 600.289 110.622 601.208 110.622 602.5H112.622C112.622 601.019 112.382 599.726 111.816 598.7L110.064 599.664ZM110.622 602.5V614H112.622V602.5H110.622ZM111.622 613H108.94V615H111.622V613ZM109.94 614V611.636H107.94V614H109.94ZM108.94 610.636H108.804V612.636H108.94V610.636ZM107.902 611.204C107.784 611.45 107.56 611.767 107.182 612.151L108.608 613.553C109.079 613.074 109.46 612.58 109.705 612.069L107.902 611.204ZM107.182 612.151C106.869 612.47 106.423 612.771 105.807 613.036L106.597 614.873C107.39 614.532 108.072 614.099 108.608 613.553L107.182 612.151ZM105.807 613.036C105.26 613.271 104.543 613.409 103.622 613.409V615.409C104.731 615.409 105.734 615.244 106.597 614.873L105.807 613.036ZM104.031 613C105.221 613 106.296 612.766 107.21 612.243L106.216 610.507C105.675 610.817 104.963 611 104.031 611V613ZM107.206 612.245C108.08 611.749 108.773 611.088 109.243 610.252L107.501 609.271C107.229 609.753 106.815 610.167 106.22 610.505L107.206 612.245ZM109.239 610.26C109.701 609.456 109.94 608.592 109.94 607.682H107.94C107.94 608.226 107.801 608.748 107.505 609.263L109.239 610.26ZM109.94 607.682V605.227H107.94V607.682H109.94ZM108.172 604.587C108.21 604.542 108.24 604.52 108.246 604.515C108.253 604.511 108.246 604.516 108.22 604.529C108.166 604.556 108.067 604.596 107.908 604.643L108.473 606.562C108.7 606.495 108.919 606.415 109.115 606.318C109.3 606.225 109.527 606.085 109.709 605.867L108.172 604.587ZM107.921 604.639C107.585 604.733 107.182 604.821 106.708 604.9L107.037 606.873C107.562 606.785 108.038 606.683 108.46 606.565L107.921 604.639ZM106.72 604.898C106.235 604.973 105.762 605.04 105.301 605.099L105.557 607.083C106.035 607.021 106.524 606.952 107.024 606.875L106.72 604.898ZM105.315 605.097C104.85 605.151 104.469 605.197 104.174 605.236L104.434 607.219C104.715 607.182 105.084 607.137 105.543 607.084L105.315 605.097ZM104.175 605.236C103.419 605.334 102.703 605.496 102.03 605.723L102.669 607.618C103.208 607.436 103.795 607.302 104.433 607.219L104.175 605.236ZM102.037 605.721C101.302 605.962 100.664 606.345 100.161 606.889L101.629 608.247C101.869 607.988 102.2 607.772 102.662 607.62L102.037 605.721ZM100.16 606.89C99.5833 607.515 99.3494 608.319 99.3494 609.182H101.349C101.349 608.681 101.479 608.409 101.63 608.246L100.16 606.89ZM99.3494 609.182C99.3494 610.399 99.8218 611.431 100.814 612.118L101.953 610.473C101.566 610.206 101.349 609.828 101.349 609.182H99.3494ZM100.825 612.125C101.726 612.732 102.818 613 104.031 613V611C103.108 611 102.435 610.798 101.942 610.466L100.825 612.125ZM116.517 614H115.517V615H116.517V614ZM116.517 596.545V595.545H115.517V596.545H116.517ZM119.108 596.545H120.108V595.545H119.108V596.545ZM119.108 599.273H118.108V600.273H119.108V599.273ZM119.335 599.273V600.273H120.018L120.267 599.636L119.335 599.273ZM121.097 597.102L121.633 597.946L121.639 597.943L121.097 597.102ZM126.892 597.102L126.328 597.928L126.337 597.934L126.892 597.102ZM128.699 599.273L127.792 599.693L128.06 600.273H128.699V599.273ZM128.881 599.273V600.273H129.501L129.777 599.717L128.881 599.273ZM130.892 597.125L131.402 597.985L131.408 597.982L130.892 597.125ZM137.938 597.784L137.236 598.497L137.239 598.499L137.938 597.784ZM139.426 614V615H140.426V614H139.426ZM136.744 614H135.744V615H136.744V614ZM135.688 599.557L135.07 600.343L135.688 599.557ZM130.347 599.841L131.083 600.517L131.087 600.513L130.347 599.841ZM129.335 614V615H130.335V614H129.335ZM126.608 614H125.608V615H126.608V614ZM125.642 599.648L124.952 600.372L124.957 600.376L125.642 599.648ZM121.199 599.284L120.677 598.431L120.672 598.434L121.199 599.284ZM119.744 600.83L118.873 600.339L118.871 600.342L119.744 600.83ZM119.199 614V615H120.199V614H119.199ZM117.517 614V596.545H115.517V614H117.517ZM116.517 597.545H119.108V595.545H116.517V597.545ZM118.108 596.545V599.273H120.108V596.545H118.108ZM119.108 600.273H119.335V598.273H119.108V600.273ZM120.267 599.636C120.557 598.894 121.01 598.342 121.633 597.946L120.56 596.258C119.562 596.892 118.841 597.788 118.404 598.909L120.267 599.636ZM121.639 597.943C122.261 597.542 123.038 597.318 124.017 597.318V595.318C122.723 595.318 121.554 595.618 120.555 596.262L121.639 597.943ZM124.017 597.318C125.016 597.318 125.765 597.544 126.328 597.928L127.456 596.277C126.488 595.615 125.321 595.318 124.017 595.318V597.318ZM126.337 597.934C126.941 598.337 127.429 598.91 127.792 599.693L129.606 598.852C129.105 597.772 128.389 596.898 127.447 596.27L126.337 597.934ZM128.699 600.273H128.881V598.273H128.699V600.273ZM129.777 599.717C130.135 598.994 130.669 598.42 131.402 597.985L130.382 596.265C129.328 596.89 128.52 597.748 127.985 598.829L129.777 599.717ZM131.408 597.982C132.118 597.555 133.003 597.318 134.108 597.318V595.318C132.712 595.318 131.454 595.62 130.376 596.268L131.408 597.982ZM134.108 597.318C135.44 597.318 136.454 597.726 137.236 598.497L138.639 597.072C137.436 595.887 135.897 595.318 134.108 595.318V597.318ZM137.239 598.499C137.963 599.207 138.426 600.406 138.426 602.318H140.426C140.426 600.125 139.897 598.301 138.636 597.069L137.239 598.499ZM138.426 602.318V614H140.426V602.318H138.426ZM139.426 613H136.744V615H139.426V613ZM137.744 614V602.318H135.744V614H137.744ZM137.744 602.318C137.744 600.864 137.343 599.585 136.305 598.77L135.07 600.343C135.441 600.634 135.744 601.197 135.744 602.318H137.744ZM136.305 598.77C135.412 598.07 134.362 597.727 133.199 597.727V599.727C133.945 599.727 134.554 599.938 135.07 600.343L136.305 598.77ZM133.199 597.727C131.758 597.727 130.512 598.172 129.606 599.169L131.087 600.513C131.53 600.025 132.185 599.727 133.199 599.727V597.727ZM129.61 599.165C128.744 600.109 128.335 601.293 128.335 602.636H130.335C130.335 601.722 130.601 601.043 131.083 600.517L129.61 599.165ZM128.335 602.636V614H130.335V602.636H128.335ZM129.335 613H126.608V615H129.335V613ZM127.608 614V602.045H125.608V614H127.608ZM127.608 602.045C127.608 600.814 127.198 599.739 126.327 598.92L124.957 600.376C125.374 600.769 125.608 601.292 125.608 602.045H127.608ZM126.332 598.924C125.475 598.108 124.386 597.727 123.153 597.727V599.727C123.951 599.727 124.521 599.961 124.952 600.372L126.332 598.924ZM123.153 597.727C122.268 597.727 121.437 597.966 120.677 598.431L121.721 600.137C122.173 599.86 122.645 599.727 123.153 599.727V597.727ZM120.672 598.434C119.92 598.901 119.321 599.544 118.873 600.339L120.616 601.32C120.91 600.797 121.281 600.41 121.726 600.134L120.672 598.434ZM118.871 600.342C118.413 601.163 118.199 602.09 118.199 603.091H120.199C120.199 602.38 120.349 601.799 120.618 601.317L118.871 600.342ZM118.199 603.091V614H120.199V603.091H118.199ZM119.199 613H116.517V615H119.199V613ZM147.295 613.25L146.769 614.1L146.776 614.104L147.295 613.25ZM144.489 610.114L143.588 610.549L143.591 610.555L144.489 610.114ZM144.489 600.682L143.587 600.249L143.586 600.251L144.489 600.682ZM147.239 597.477L147.785 598.315L147.786 598.314L147.239 597.477ZM154.068 596.773L154.392 595.826L154.068 596.773ZM156.489 598.25L155.805 598.98L155.809 598.983L156.489 598.25ZM158.227 600.932L159.16 600.57V600.57L158.227 600.932ZM158.875 606.182V607.182H159.875V606.182H158.875ZM145.42 606.182H144.42V607.182H145.42V606.182ZM145.42 603.864V602.864H144.42V603.864H145.42ZM156.148 603.864V604.864H157.148V603.864H156.148ZM155.557 601.227L154.662 601.674L154.666 601.681L155.557 601.227ZM153.898 599.398L153.366 600.245L153.37 600.247L153.898 599.398ZM148.602 599.523L149.163 600.351L149.164 600.35L148.602 599.523ZM146.818 601.568L145.922 601.124L146.818 601.568ZM146.875 609.17L145.979 609.615L145.984 609.624L146.875 609.17ZM148.795 611.25L148.292 612.114L148.298 612.117L148.795 611.25ZM153.557 611.659L153.884 612.604L153.892 612.601L153.557 611.659ZM155.045 610.75L155.739 611.47L155.746 611.464L155.045 610.75ZM156.011 609.227L156.282 608.264L155.397 608.016L155.075 608.876L156.011 609.227ZM158.602 609.955L159.557 610.251L159.862 609.269L158.873 608.992L158.602 609.955ZM157.227 612.273L157.943 612.972L157.947 612.967L157.227 612.273ZM154.841 613.818L155.199 614.752L155.206 614.749L154.841 613.818ZM151.648 613.364C150.116 613.364 148.852 613.027 147.815 612.396L146.776 614.104C148.178 614.958 149.815 615.364 151.648 615.364V613.364ZM147.822 612.4C146.777 611.753 145.967 610.853 145.386 609.673L143.591 610.555C144.329 612.056 145.39 613.247 146.769 614.1L147.822 612.4ZM145.389 609.679C144.815 608.49 144.511 607.075 144.511 605.409H142.511C142.511 607.319 142.86 609.041 143.588 610.549L145.389 609.679ZM144.511 605.409C144.511 603.743 144.814 602.319 145.391 601.113L143.586 600.251C142.86 601.771 142.511 603.499 142.511 605.409H144.511ZM145.39 601.115C145.977 599.894 146.777 598.972 147.785 598.315L146.693 596.639C145.352 597.513 144.319 598.727 143.587 600.249L145.39 601.115ZM147.786 598.314C148.787 597.66 149.97 597.318 151.375 597.318V595.318C149.628 595.318 148.054 595.749 146.691 596.64L147.786 598.314ZM151.375 597.318C152.171 597.318 152.959 597.45 153.745 597.719L154.392 595.826C153.404 595.489 152.397 595.318 151.375 595.318V597.318ZM153.745 597.719C154.488 597.973 155.174 598.388 155.805 598.98L157.173 597.52C156.349 596.748 155.421 596.178 154.392 595.826L153.745 597.719ZM155.809 598.983C156.404 599.535 156.907 600.293 157.295 601.293L159.16 600.57C158.684 599.344 158.028 598.313 157.169 597.517L155.809 598.983ZM157.295 601.293C157.669 602.258 157.875 603.498 157.875 605.045H159.875C159.875 603.335 159.649 601.833 159.16 600.57L157.295 601.293ZM157.875 605.045V606.182H159.875V605.045H157.875ZM158.875 605.182H145.42V607.182H158.875V605.182ZM146.42 606.182V603.864H144.42V606.182H146.42ZM145.42 604.864H156.148V602.864H145.42V604.864ZM157.148 603.864C157.148 602.742 156.923 601.704 156.448 600.773L154.666 601.681C154.979 602.296 155.148 603.015 155.148 603.864H157.148ZM156.451 600.78C155.984 599.845 155.305 599.095 154.425 598.548L153.37 600.247C153.929 600.595 154.357 601.064 154.662 601.674L156.451 600.78ZM154.429 598.551C153.535 597.989 152.503 597.727 151.375 597.727V599.727C152.186 599.727 152.837 599.912 153.366 600.245L154.429 598.551ZM151.375 597.727C150.134 597.727 149.008 598.038 148.04 598.696L149.164 600.35C149.758 599.947 150.48 599.727 151.375 599.727V597.727ZM148.042 598.694C147.125 599.315 146.415 600.129 145.922 601.124L147.714 602.012C148.055 601.325 148.534 600.776 149.163 600.351L148.042 598.694ZM145.922 601.124C145.435 602.107 145.193 603.161 145.193 604.273H147.193C147.193 603.461 147.368 602.712 147.714 602.012L145.922 601.124ZM145.193 604.273V605.818H147.193V604.273H145.193ZM145.193 605.818C145.193 607.248 145.439 608.526 145.979 609.615L147.771 608.726C147.402 607.982 147.193 607.025 147.193 605.818H145.193ZM145.984 609.624C146.526 610.69 147.295 611.532 148.292 612.114L149.299 610.386C148.66 610.013 148.148 609.469 147.766 608.717L145.984 609.624ZM148.298 612.117C149.289 612.686 150.416 612.955 151.648 612.955V610.955C150.713 610.955 149.939 610.753 149.293 610.383L148.298 612.117ZM151.648 612.955C152.445 612.955 153.195 612.843 153.884 612.604L153.229 610.714C152.783 610.869 152.259 610.955 151.648 610.955V612.955ZM153.892 612.601C154.594 612.352 155.214 611.976 155.739 611.47L154.352 610.03C154.043 610.327 153.671 610.557 153.222 610.717L153.892 612.601ZM155.746 611.464C156.278 610.942 156.675 610.306 156.948 609.578L155.075 608.876C154.893 609.361 154.647 609.74 154.345 610.036L155.746 611.464ZM155.741 610.19L158.332 610.917L158.873 608.992L156.282 608.264L155.741 610.19ZM157.647 609.658C157.421 610.386 157.044 611.023 156.508 611.578L157.947 612.967C158.698 612.189 159.238 611.28 159.557 610.251L157.647 609.658ZM156.512 611.574C155.977 612.122 155.305 612.562 154.476 612.887L155.206 614.749C156.271 614.332 157.19 613.742 157.943 612.972L156.512 611.574ZM154.482 612.885C153.667 613.198 152.727 613.364 151.648 613.364V615.364C152.932 615.364 154.121 615.166 155.199 614.752L154.482 612.885ZM175.318 600.455L175.59 601.417L176.6 601.131L176.266 600.137L175.318 600.455ZM172.909 601.136L171.973 601.489L172.298 602.349L173.181 602.099L172.909 601.136ZM172.239 599.966L171.437 600.563L171.443 600.572L171.45 600.581L172.239 599.966ZM171.057 599.011L171.504 598.117L171.057 599.011ZM166.466 599.375L167.033 600.199L167.035 600.198L166.466 599.375ZM166.136 602.807L165.513 603.589V603.589L166.136 602.807ZM168.409 603.773L168.167 604.743L168.171 604.744L168.409 603.773ZM171 604.409L170.761 605.38L170.764 605.381L171 604.409ZM174.489 606.148L173.775 606.848L173.778 606.851L174.489 606.148ZM174.773 611.818L173.965 611.228L173.962 611.233L174.773 611.818ZM164.398 613.205L164.95 612.371L164.398 613.205ZM162.182 609.818L161.939 608.848L161.006 609.081L161.203 610.023L162.182 609.818ZM164.727 609.182L165.696 608.932L165.448 607.971L164.485 608.212L164.727 609.182ZM166.102 611.295L165.531 612.116L165.535 612.119L166.102 611.295ZM171.75 611.205L172.335 612.015L172.337 612.014L171.75 611.205ZM172.227 607.75L171.527 608.463L171.533 608.47L172.227 607.75ZM170.273 606.818L170.045 607.792L170.046 607.792L170.273 606.818ZM167.364 606.136L167.133 607.109L167.135 607.11L167.364 606.136ZM163.841 604.375L163.107 605.054L163.113 605.061L163.841 604.375ZM163.557 598.75L162.753 598.155L162.749 598.16L163.557 598.75ZM165.841 596.966L165.434 596.052L165.431 596.054L165.841 596.966ZM173.205 597.455L172.595 598.247L172.598 598.249L173.205 597.455ZM175.046 599.492L172.637 600.174L173.181 602.099L175.59 601.417L175.046 599.492ZM173.845 600.783C173.654 600.277 173.377 599.8 173.027 599.351L171.45 600.581C171.691 600.89 171.861 601.193 171.973 601.489L173.845 600.783ZM173.041 599.368C172.645 598.838 172.121 598.426 171.504 598.117L170.61 599.906C170.992 600.097 171.256 600.321 171.437 600.563L173.041 599.368ZM171.504 598.117C170.821 597.776 170.014 597.636 169.136 597.636V599.636C169.819 599.636 170.292 599.747 170.61 599.906L171.504 598.117ZM169.136 597.636C167.913 597.636 166.812 597.92 165.897 598.552L167.035 600.198C167.544 599.845 168.223 599.636 169.136 599.636V597.636ZM165.899 598.551C164.967 599.192 164.409 600.098 164.409 601.227H166.409C166.409 600.857 166.555 600.527 167.033 600.199L165.899 598.551ZM164.409 601.227C164.409 602.172 164.77 602.997 165.513 603.589L166.76 602.025C166.533 601.844 166.409 601.616 166.409 601.227H164.409ZM165.513 603.589C166.163 604.107 167.083 604.472 168.167 604.743L168.652 602.803C167.675 602.558 167.08 602.28 166.76 602.025L165.513 603.589ZM168.171 604.744L170.761 605.38L171.239 603.438L168.648 602.802L168.171 604.744ZM170.764 605.381C172.223 605.735 173.188 606.25 173.775 606.848L175.203 605.448C174.259 604.485 172.898 603.841 171.236 603.437L170.764 605.381ZM173.778 606.851C174.335 607.413 174.636 608.145 174.636 609.136H176.636C176.636 607.688 176.173 606.428 175.199 605.444L173.778 606.851ZM174.636 609.136C174.636 609.93 174.413 610.616 173.965 611.228L175.58 612.408C176.284 611.445 176.636 610.343 176.636 609.136H174.636ZM173.962 611.233C173.512 611.857 172.866 612.374 171.98 612.768L172.792 614.596C173.952 614.08 174.897 613.355 175.584 612.403L173.962 611.233ZM171.98 612.768C171.109 613.155 170.063 613.364 168.818 613.364V615.364C170.285 615.364 171.618 615.118 172.792 614.596L171.98 612.768ZM168.818 613.364C167.181 613.364 165.913 613.009 164.95 612.371L163.846 614.038C165.215 614.945 166.895 615.364 168.818 615.364V613.364ZM164.95 612.371C164.022 611.756 163.422 610.864 163.161 609.613L161.203 610.023C161.563 611.742 162.44 613.107 163.846 614.038L164.95 612.371ZM162.424 610.788L164.97 610.152L164.485 608.212L161.939 608.848L162.424 610.788ZM163.759 609.432C164.05 610.559 164.626 611.486 165.531 612.116L166.674 610.475C166.23 610.166 165.89 609.684 165.696 608.932L163.759 609.432ZM165.535 612.119C166.43 612.736 167.537 613 168.773 613V611C167.812 611 167.138 610.795 166.67 610.472L165.535 612.119ZM168.773 613C170.155 613 171.376 612.708 172.335 612.015L171.165 610.394C170.654 610.762 169.89 611 168.773 611V613ZM172.337 612.014C173.274 611.335 173.864 610.416 173.864 609.273H171.864C171.864 609.63 171.711 609.998 171.163 610.395L172.337 612.014ZM173.864 609.273C173.864 608.404 173.547 607.634 172.921 607.03L171.533 608.47C171.756 608.685 171.864 608.93 171.864 609.273H173.864ZM172.928 607.037C172.322 606.441 171.471 606.07 170.499 605.844L170.046 607.792C170.832 607.975 171.285 608.226 171.527 608.463L172.928 607.037ZM170.501 605.845L167.592 605.163L167.135 607.11L170.045 607.792L170.501 605.845ZM167.594 605.163C166.096 604.808 165.133 604.288 164.568 603.689L163.113 605.061C164.049 606.053 165.434 606.707 167.133 607.109L167.594 605.163ZM164.575 603.696C164.022 603.097 163.727 602.344 163.727 601.364H161.727C161.727 602.792 162.175 604.047 163.107 605.054L164.575 603.696ZM163.727 601.364C163.727 600.579 163.943 599.917 164.365 599.34L162.749 598.16C162.065 599.098 161.727 600.178 161.727 601.364H163.727ZM164.361 599.345C164.808 598.741 165.426 598.248 166.25 597.878L165.431 596.054C164.332 596.547 163.427 597.244 162.753 598.155L164.361 599.345ZM166.248 597.879C167.071 597.513 168.028 597.318 169.136 597.318V595.318C167.791 595.318 166.55 595.555 165.434 596.052L166.248 597.879ZM169.136 597.318C170.728 597.318 171.842 597.668 172.595 598.247L173.814 596.662C172.598 595.726 171 595.318 169.136 595.318V597.318ZM172.598 598.249C173.423 598.88 174.014 599.71 174.37 600.773L176.266 600.137C175.789 598.715 174.971 597.545 173.811 596.66L172.598 598.249ZM207.344 608.727L206.448 608.283L207.344 608.727ZM203.696 612.864L204.228 613.711L203.696 612.864ZM193.105 612.864L192.574 613.711L193.105 612.864ZM189.457 608.727L190.353 608.283L189.457 608.727ZM189.457 596L188.561 595.556L189.457 596ZM203.696 591.864L204.228 591.017L203.696 591.864ZM207.344 596L206.448 596.444L207.344 596ZM204.935 597.261L204.033 597.695L204.035 597.699L204.935 597.261ZM202.219 594.114L201.688 594.961L201.69 594.963L202.219 594.114ZM194.571 594.114L194.043 593.265L194.04 593.266L194.571 594.114ZM191.855 597.261L190.956 596.824L190.954 596.828L191.855 597.261ZM191.855 607.466L190.954 607.899L190.956 607.903L191.855 607.466ZM194.571 610.614L194.04 611.461L194.043 611.463L194.571 610.614ZM202.219 610.614L201.69 609.765L201.688 609.766L202.219 610.614ZM204.935 607.466L204.035 607.029L204.033 607.033L204.935 607.466ZM207.673 602.364C207.673 604.699 207.252 606.661 206.448 608.283L208.24 609.171C209.208 607.217 209.673 604.937 209.673 602.364H207.673ZM206.448 608.283C205.635 609.922 204.539 611.154 203.165 612.017L204.228 613.711C205.944 612.634 207.279 611.109 208.24 609.171L206.448 608.283ZM203.165 612.017C201.792 612.878 200.215 613.318 198.401 613.318V615.318C200.556 615.318 202.509 614.789 204.228 613.711L203.165 612.017ZM198.401 613.318C196.587 613.318 195.009 612.878 193.637 612.017L192.574 613.711C194.292 614.789 196.245 615.318 198.401 615.318V613.318ZM193.637 612.017C192.262 611.154 191.166 609.922 190.353 608.283L188.561 609.171C189.522 611.109 190.857 612.634 192.574 613.711L193.637 612.017ZM190.353 608.283C189.549 606.661 189.128 604.699 189.128 602.364H187.128C187.128 604.937 187.593 607.217 188.561 609.171L190.353 608.283ZM189.128 602.364C189.128 600.028 189.549 598.066 190.353 596.444L188.561 595.556C187.593 597.51 187.128 599.79 187.128 602.364H189.128ZM190.353 596.444C191.166 594.806 192.262 593.573 193.637 592.711L192.574 591.017C190.857 592.093 189.522 593.619 188.561 595.556L190.353 596.444ZM193.637 592.711C195.009 591.85 196.587 591.409 198.401 591.409V589.409C196.245 589.409 194.292 589.938 192.574 591.017L193.637 592.711ZM198.401 591.409C200.215 591.409 201.792 591.85 203.165 592.711L204.228 591.017C202.509 589.938 200.556 589.409 198.401 589.409V591.409ZM203.165 592.711C204.539 593.573 205.635 594.806 206.448 596.444L208.24 595.556C207.279 593.619 205.944 592.093 204.228 591.017L203.165 592.711ZM206.448 596.444C207.252 598.066 207.673 600.028 207.673 602.364H209.673C209.673 599.79 209.208 597.51 208.24 595.556L206.448 596.444ZM206.946 602.364C206.946 600.242 206.592 598.382 205.834 596.824L204.035 597.699C204.626 598.914 204.946 600.455 204.946 602.364H206.946ZM205.836 596.828C205.099 595.295 204.074 594.091 202.747 593.265L201.69 594.963C202.651 595.561 203.437 596.455 204.033 597.695L205.836 596.828ZM202.75 593.266C201.446 592.449 199.988 592.045 198.401 592.045V594.045C199.632 594.045 200.719 594.354 201.688 594.961L202.75 593.266ZM198.401 592.045C196.814 592.045 195.353 592.449 194.043 593.265L195.1 594.963C196.077 594.354 197.169 594.045 198.401 594.045V592.045ZM194.04 593.266C192.722 594.092 191.699 595.295 190.956 596.824L192.754 597.699C193.359 596.455 194.147 595.559 195.102 594.961L194.04 593.266ZM190.954 596.828C190.205 598.385 189.855 600.243 189.855 602.364H191.855C191.855 600.454 192.172 598.911 192.756 597.695L190.954 596.828ZM189.855 602.364C189.855 604.484 190.205 606.343 190.954 607.899L192.756 607.033C192.172 605.817 191.855 604.273 191.855 602.364H189.855ZM190.956 607.903C191.699 609.432 192.722 610.635 194.04 611.461L195.102 609.766C194.147 609.168 193.359 608.272 192.754 607.029L190.956 607.903ZM194.043 611.463C195.353 612.278 196.814 612.682 198.401 612.682V610.682C197.169 610.682 196.077 610.373 195.1 609.765L194.043 611.463ZM198.401 612.682C199.988 612.682 201.446 612.278 202.75 611.461L201.688 609.766C200.719 610.373 199.632 610.682 198.401 610.682V612.682ZM202.747 611.463C204.074 610.636 205.099 609.432 205.836 607.899L204.033 607.033C203.437 608.273 202.651 609.167 201.69 609.765L202.747 611.463ZM205.834 607.903C206.592 606.345 206.946 604.486 206.946 602.364H204.946C204.946 604.272 204.626 605.814 204.035 607.029L205.834 607.903ZM220.821 596.545H221.821V595.545H220.821V596.545ZM220.821 598.818V599.818H221.821V598.818H220.821ZM211.412 598.818H210.412V599.818H211.412V598.818ZM211.412 596.545V595.545H210.412V596.545H211.412ZM214.23 614H213.23V615H214.23V614ZM214.935 591.636L214.117 591.06L214.935 591.636ZM216.764 590.136L216.358 589.223L216.764 590.136ZM220.753 589.795L220.506 590.765L220.753 589.795ZM221.685 590.091L222.633 590.407L222.92 589.546L222.091 589.177L221.685 590.091ZM220.912 592.409L220.596 593.358L221.544 593.674L221.861 592.725L220.912 592.409ZM220.344 592.239L220.065 593.199L220.073 593.201L220.344 592.239ZM217.491 592.807L216.741 592.146L216.735 592.153L217.491 592.807ZM216.912 614V615H217.912V614H216.912ZM219.821 596.545V598.818H221.821V596.545H219.821ZM220.821 597.818H211.412V599.818H220.821V597.818ZM212.412 598.818V596.545H210.412V598.818H212.412ZM211.412 597.545H220.821V595.545H211.412V597.545ZM215.23 614V594.136H213.23V614H215.23ZM215.23 594.136C215.23 593.295 215.426 592.675 215.752 592.212L214.117 591.06C213.504 591.931 213.23 592.977 213.23 594.136H215.23ZM215.752 592.212C216.117 591.694 216.584 591.311 217.17 591.05L216.358 589.223C215.444 589.629 214.692 590.245 214.117 591.06L215.752 592.212ZM217.17 591.05C217.79 590.775 218.444 590.636 219.139 590.636V588.636C218.168 588.636 217.238 588.832 216.358 589.223L217.17 591.05ZM219.139 590.636C219.754 590.636 220.201 590.687 220.506 590.765L221 588.826C220.472 588.692 219.842 588.636 219.139 588.636V590.636ZM220.506 590.765C220.908 590.867 221.153 590.949 221.279 591.005L222.091 589.177C221.807 589.051 221.431 588.936 221 588.826L220.506 590.765ZM220.736 589.775L219.963 592.093L221.861 592.725L222.633 590.407L220.736 589.775ZM221.228 591.46C221.07 591.408 220.863 591.346 220.614 591.276L220.073 593.201C220.31 593.268 220.481 593.32 220.596 593.358L221.228 591.46ZM220.623 591.278C220.26 591.173 219.845 591.136 219.412 591.136V593.136C219.752 593.136 219.957 593.168 220.065 593.199L220.623 591.278ZM219.412 591.136C218.38 591.136 217.402 591.396 216.741 592.146L218.242 593.468C218.369 593.324 218.671 593.136 219.412 593.136V591.136ZM216.735 592.153C216.133 592.849 215.912 593.777 215.912 594.773H217.912C217.912 594.041 218.077 593.658 218.248 593.461L216.735 592.153ZM215.912 594.773V614H217.912V594.773H215.912ZM216.912 613H214.23V615H216.912V613ZM234.898 614V615H235.604L235.84 614.335L234.898 614ZM231.943 614L231.004 613.655L230.511 615H231.943V614ZM240.489 590.727V589.727H239.791L239.55 590.383L240.489 590.727ZM243.398 590.727L244.336 590.383L244.096 589.727H243.398V590.727ZM251.943 614V615H253.376L252.882 613.655L251.943 614ZM248.989 614L248.046 614.335L248.282 615H248.989V614ZM242.034 594.409L242.976 594.075L242.74 593.409H242.034V594.409ZM241.852 594.409V593.409H241.146L240.91 594.075L241.852 594.409ZM235.989 604.909V603.909H234.989V604.909H235.989ZM247.898 604.909H248.898V603.909H247.898V604.909ZM247.898 607.409V608.409H248.898V607.409H247.898ZM235.989 607.409H234.989V608.409H235.989V607.409ZM234.898 613H231.943V615H234.898V613ZM232.882 614.345L241.427 591.072L239.55 590.383L231.004 613.655L232.882 614.345ZM240.489 591.727H243.398V589.727H240.489V591.727ZM242.459 591.072L251.004 614.345L252.882 613.655L244.336 590.383L242.459 591.072ZM251.943 613H248.989V615H251.943V613ZM249.931 613.665L242.976 594.075L241.092 594.744L248.046 614.335L249.931 613.665ZM242.034 593.409H241.852V595.409H242.034V593.409ZM240.91 594.075L233.955 613.665L235.84 614.335L242.795 594.744L240.91 594.075ZM235.989 605.909H247.898V603.909H235.989V605.909ZM246.898 604.909V607.409H248.898V604.909H246.898ZM247.898 606.409H235.989V608.409H247.898V606.409ZM236.989 607.409V604.909H234.989V607.409H236.989ZM255.568 614H254.568V615H255.568V614ZM255.568 590.727V589.727H254.568V590.727H255.568ZM258.386 590.727H259.386V589.727H258.386V590.727ZM258.386 611.5H257.386V612.5H258.386V611.5ZM269.205 611.5H270.205V610.5H269.205V611.5ZM269.205 614V615H270.205V614H269.205ZM256.568 614V590.727H254.568V614H256.568ZM255.568 591.727H258.386V589.727H255.568V591.727ZM257.386 590.727V611.5H259.386V590.727H257.386ZM258.386 612.5H269.205V610.5H258.386V612.5ZM268.205 611.5V614H270.205V611.5H268.205ZM269.205 613H255.568V615H269.205V613ZM273.568 614H272.568V615H273.568V614ZM273.568 590.727V589.727H272.568V590.727H273.568ZM276.386 590.727H277.386V589.727H276.386V590.727ZM276.386 611.5H275.386V612.5H276.386V611.5ZM287.205 611.5H288.205V610.5H287.205V611.5ZM287.205 614V615H288.205V614H287.205ZM274.568 614V590.727H272.568V614H274.568ZM273.568 591.727H276.386V589.727H273.568V591.727ZM275.386 590.727V611.5H277.386V590.727H275.386ZM276.386 612.5H287.205V610.5H276.386V612.5ZM286.205 611.5V614H288.205V611.5H286.205ZM287.205 613H273.568V615H287.205V613ZM293.991 614V615H294.698L294.934 614.335L293.991 614ZM291.037 614L290.098 613.655L289.604 615H291.037V614ZM299.582 590.727V589.727H298.884L298.644 590.383L299.582 590.727ZM302.491 590.727L303.43 590.383L303.19 589.727H302.491V590.727ZM311.037 614V615H312.469L311.976 613.655L311.037 614ZM308.082 614L307.14 614.335L307.376 615H308.082V614ZM301.128 594.409L302.07 594.075L301.834 593.409H301.128V594.409ZM300.946 594.409V593.409H300.24L300.004 594.075L300.946 594.409ZM295.082 604.909V603.909H294.082V604.909H295.082ZM306.991 604.909H307.991V603.909H306.991V604.909ZM306.991 607.409V608.409H307.991V607.409H306.991ZM295.082 607.409H294.082V608.409H295.082V607.409ZM293.991 613H291.037V615H293.991V613ZM291.976 614.345L300.521 591.072L298.644 590.383L290.098 613.655L291.976 614.345ZM299.582 591.727H302.491V589.727H299.582V591.727ZM301.553 591.072L310.098 614.345L311.976 613.655L303.43 590.383L301.553 591.072ZM311.037 613H308.082V615H311.037V613ZM309.025 613.665L302.07 594.075L300.185 594.744L307.14 614.335L309.025 613.665ZM301.128 593.409H300.946V595.409H301.128V593.409ZM300.004 594.075L293.049 613.665L294.934 614.335L301.888 594.744L300.004 594.075ZM295.082 605.909H306.991V603.909H295.082V605.909ZM305.991 604.909V607.409H307.991V604.909H305.991ZM306.991 606.409H295.082V608.409H306.991V606.409ZM296.082 607.409V604.909H294.082V607.409H296.082ZM314.662 614H313.662V615H314.662V614ZM314.662 590.727V589.727H313.662V590.727H314.662ZM317.48 590.727H318.48V589.727H317.48V590.727ZM317.48 601.091H316.48V602.091H317.48V601.091ZM329.889 601.091V602.091H330.889V601.091H329.889ZM329.889 590.727V589.727H328.889V590.727H329.889ZM332.707 590.727H333.707V589.727H332.707V590.727ZM332.707 614V615H333.707V614H332.707ZM329.889 614H328.889V615H329.889V614ZM329.889 603.591H330.889V602.591H329.889V603.591ZM317.48 603.591V602.591H316.48V603.591H317.48ZM317.48 614V615H318.48V614H317.48ZM315.662 614V590.727H313.662V614H315.662ZM314.662 591.727H317.48V589.727H314.662V591.727ZM316.48 590.727V601.091H318.48V590.727H316.48ZM317.48 602.091H329.889V600.091H317.48V602.091ZM330.889 601.091V590.727H328.889V601.091H330.889ZM329.889 591.727H332.707V589.727H329.889V591.727ZM331.707 590.727V614H333.707V590.727H331.707ZM332.707 613H329.889V615H332.707V613ZM330.889 614V603.591H328.889V614H330.889ZM329.889 602.591H317.48V604.591H329.889V602.591ZM316.48 603.591V614H318.48V603.591H316.48ZM317.48 613H314.662V615H317.48V613Z" fill="#D1BD03"/>
</g>
<rect x="-1" width="360" height="800" fill="url(#pattern0)"/>
<rect x="34" y="250" width="291" height="301" fill="url(#pattern1)"/>
<defs>
<filter id="filter0_d_3_144" x="21.0455" y="589.636" width="315.662" height="32.7727" filterUnits="userSpaceOnUse" color-interpolation-filters="sRGB">
<feFlood flood-opacity="0" result="BackgroundImageFix"/>
<feColorMatrix in="SourceAlpha" type="matrix" values="0 0 0 0 0 0 0 0 0 0 0 0 0 0 0 0 0 0 127 0" result="hardAlpha"/>
<feOffset dy="4"/>
<feGaussianBlur stdDeviation="2"/>
<feComposite in2="hardAlpha" operator="out"/>
<feColorMatrix type="matrix" values="0 0 0 0 0 0 0 0 0 0 0 0 0 0 0 0 0 0 0.25 0"/>
<feBlend mode="normal" in2="BackgroundImageFix" result="effect1_dropShadow_3_144"/>
<feBlend mode="normal" in="SourceGraphic" in2="effect1_dropShadow_3_144" result="shape"/>
</filter>
<pattern id="pattern0" patternContentUnits="objectBoundingBox" width="1" height="1">
<use xlink:href="#image0_3_144" transform="matrix(0.00548697 0 0 0.00342936 -0.292867 -0.388889)"/>
</pattern>
<pattern id="pattern1" patternContentUnits="objectBoundingBox" width="1" height="1">
<use xlink:href="#image1_3_144" transform="matrix(0.00103333 0 0 0.000999001 -0.0171821 0)"/>
</pattern>
<linearGradient id="paint0_linear_3_144" x1="180" y1="551" x2="180" y2="686.5" gradientUnits="userSpaceOnUse">
<stop offset="0.221363" stop-color="#EFD912"/>
<stop offset="1" stop-color="#EEECD8" stop-opacity="0.15"/>
</linearGradient>
</defs>
</svg>
